<?xml version="1.0" standalone="no"?>
<!DOCTYPE svg PUBLIC "-//W3C//DTD SVG 20010904//EN"
 "http://www.w3.org/TR/2001/REC-SVG-20010904/DTD/svg10.dtd">
<svg version="1.0" xmlns="http://www.w3.org/2000/svg"
 width="391.000000pt" height="374.000000pt" viewBox="0 0 391.000000 374.000000"
 preserveAspectRatio="xMidYMid meet">

<g transform="translate(0.000000,374.000000) scale(0.100000,-0.100000)"
fill="#000000" stroke="none">
<path d="M2215 3049 c-132 -18 -240 -50 -344 -100 -85 -41 -117 -64 -175 -122
-104 -104 -176 -257 -176 -371 0 -26 -5 -38 -17 -43 -65 -23 -133 -120 -133
-191 0 -36 23 -97 46 -123 13 -15 11 -22 -18 -68 -86 -140 -1 -263 225 -326
50 -14 60 -22 77 -54 20 -40 68 -87 118 -116 l29 -18 -61 -61 c-112 -113 -207
-321 -191 -419 9 -56 31 -107 57 -134 12 -13 20 -25 17 -27 -10 -9 -89 -46
-98 -46 -6 0 -15 17 -21 38 -5 22 -18 46 -27 54 -17 15 -33 19 -153 37 -101
15 -127 -19 -117 -150 6 -70 4 -81 -11 -85 -55 -18 -144 -69 -166 -95 -61 -72
-51 -171 26 -246 101 -97 263 -143 581 -164 465 -30 920 86 966 247 5 19 3 48
-6 83 -13 53 -13 54 16 100 27 42 64 136 73 185 2 15 14 2 42 -47 51 -87 123
-176 165 -204 47 -32 111 -31 148 1 44 38 37 87 -30 226 -31 63 -83 194 -116
290 -76 224 -123 334 -162 383 -17 21 -29 39 -28 40 2 1 29 15 60 30 172 86
315 272 364 472 22 89 22 283 1 398 -36 189 -96 308 -215 427 -98 97 -183 146
-317 181 -92 24 -317 34 -429 18z m399 -53 c198 -44 357 -169 446 -351 70
-144 85 -215 85 -415 0 -166 -1 -179 -28 -257 -76 -222 -257 -387 -485 -443
-62 -16 -49 -35 23 -35 54 0 59 -2 90 -38 33 -38 107 -213 160 -377 40 -122
99 -270 142 -351 35 -67 36 -72 22 -97 -11 -20 -24 -28 -51 -30 -30 -3 -44 3
-76 33 -82 73 -197 271 -246 423 -16 48 -37 65 -50 43 -4 -5 8 -49 25 -97 29
-83 31 -93 21 -152 -14 -80 -59 -177 -107 -231 -41 -45 -165 -126 -293 -190
-45 -23 -83 -41 -85 -41 -2 0 2 35 10 77 8 43 12 96 9 119 -5 38 -3 43 39 78
46 38 58 66 29 66 -9 0 -34 -15 -55 -34 l-40 -34 -42 16 c-23 8 -51 24 -63 34
-11 10 -32 18 -47 18 -14 0 -29 4 -32 10 -11 17 -37 11 -110 -24 -71 -35 -242
-97 -302 -111 l-33 -7 0 94 0 93 78 33 c67 28 82 32 106 22 34 -12 137 -15
181 -4 90 21 185 93 227 171 37 68 42 104 23 149 -15 36 -15 40 11 99 26 60
27 60 64 57 48 -5 79 12 92 49 8 23 16 29 39 29 42 0 79 40 79 85 0 33 -22 67
-49 76 -9 3 -9 12 -1 35 11 31 13 32 88 39 104 9 196 29 276 59 183 69 266
182 266 361 0 115 -37 192 -119 244 -71 46 -146 61 -298 61 -133 0 -133 0
-133 24 0 74 -52 149 -129 185 -47 22 -69 26 -141 25 -147 -1 -250 -61 -281
-163 -8 -26 -18 -41 -28 -41 -9 0 -88 9 -175 20 -88 11 -166 20 -173 20 -17 0
-17 50 2 120 26 97 74 181 147 254 64 64 70 68 87 52 23 -21 37 -20 68 4 36
28 91 26 137 -5 45 -30 63 -31 71 -4 9 29 -34 73 -87 89 -33 9 -39 14 -26 21
25 14 178 48 260 59 96 12 295 4 382 -14z m-310 -461 c104 -27 141 -69 154
-173 l7 -57 125 4 c135 3 232 -10 290 -39 52 -26 107 -92 121 -142 31 -116
-20 -279 -107 -339 -92 -63 -207 -100 -368 -118 l-90 -11 -26 31 c-20 25 -33
31 -65 31 -32 0 -45 -6 -68 -32 l-29 -32 -22 21 c-26 25 -73 27 -103 6 -28
-19 -151 -7 -363 35 -171 34 -215 49 -275 90 -85 59 -99 141 -37 219 l19 24
99 -26 c226 -58 441 -81 774 -81 312 -1 432 16 393 55 -8 8 -35 8 -101 -1
-121 -17 -584 -8 -751 14 -161 21 -343 60 -389 83 -53 27 -74 62 -74 122 0 61
34 121 82 146 33 17 77 14 344 -21 59 -7 112 -11 117 -8 5 2 13 22 19 43 28
104 101 152 255 170 6 0 37 -6 69 -14z m-371 -887 c112 -16 156 -26 153 -35
-3 -6 -1 -27 4 -44 8 -28 6 -37 -12 -56 -14 -15 -22 -36 -22 -60 0 -47 48 -93
99 -93 42 0 43 -8 7 -80 -21 -42 -33 -56 -52 -58 -64 -6 -98 -24 -149 -77 -53
-55 -77 -65 -99 -43 -18 18 -14 52 13 114 29 65 31 84 9 84 -20 0 -66 -102
-72 -160 -4 -42 -1 -49 23 -68 48 -38 79 -29 150 38 72 70 118 86 149 52 58
-65 -26 -206 -158 -268 -38 -18 -69 -24 -119 -24 -142 0 -218 67 -219 193 0
75 18 126 78 228 87 149 155 205 234 193 37 -6 42 -5 39 11 -3 12 -23 24 -55
35 -91 32 -170 84 -196 133 -9 18 -8 19 13 13 13 -3 95 -16 182 -28z m352
-138 c9 -15 -14 -40 -36 -40 -24 0 -33 18 -19 35 14 17 46 20 55 5z m-892
-630 c-5 -36 -3 -40 16 -40 14 0 21 6 21 19 0 24 24 44 47 39 25 -5 43 -66 49
-173 6 -105 -2 -141 -38 -168 -39 -29 -90 -9 -123 47 -51 88 -85 226 -70 283
l8 28 6 -30 c8 -37 35 -40 40 -5 3 25 17 40 38 40 7 0 9 -13 6 -40z m573 -222
c-1 -33 3 -43 17 -46 12 -3 17 3 17 22 0 29 26 58 49 54 11 -3 15 -12 12 -28
-8 -55 -6 -74 10 -78 11 -2 20 7 27 27 12 34 36 40 67 17 24 -17 24 -85 1
-195 -20 -94 -37 -121 -77 -121 -96 0 -158 105 -162 274 -2 60 2 78 17 95 11
11 20 21 21 21 1 0 1 -19 1 -42z"/>
<path d="M2600 2858 c-35 -18 -45 -28 -45 -48 0 -32 25 -37 72 -15 47 22 103
15 149 -20 36 -28 60 -27 71 1 9 23 -54 79 -104 93 -58 16 -94 13 -143 -11z"/>
<path d="M1777 2683 c-13 -13 -7 -58 13 -90 27 -44 82 -61 133 -40 40 17 79
70 75 101 -5 32 -26 29 -41 -6 -18 -44 -41 -61 -79 -61 -38 0 -68 33 -68 74 0
27 -17 39 -33 22z"/>
<path d="M2547 2613 c-12 -11 -8 -63 7 -92 39 -75 168 -64 211 18 21 41 19 61
-5 61 -11 0 -20 -6 -20 -14 0 -27 -44 -67 -81 -72 -48 -8 -79 20 -79 71 0 33
-16 46 -33 28z"/>
<path d="M2084 2406 c-12 -31 0 -51 31 -51 27 0 30 3 30 30 0 25 -4 30 -28 33
-17 2 -29 -2 -33 -12z"/>
<path d="M2276 2404 c-19 -18 -19 -20 -6 -45 6 -10 19 -19 30 -19 16 0 40 26
40 44 0 8 -31 36 -40 36 -5 0 -16 -7 -24 -16z"/>
<path d="M3455 932 c-11 -2 -25 -8 -32 -14 -8 -6 -19 -6 -32 1 -52 28 -121 -9
-121 -65 0 -15 -10 -38 -22 -51 -40 -43 -16 -123 36 -123 29 0 44 -42 37 -104
-6 -46 -9 -50 -37 -58 -32 -8 -49 -31 -38 -50 30 -48 235 -50 275 -2 10 12 9
19 -8 36 -15 15 -38 22 -87 25 -61 5 -66 8 -66 29 0 37 11 54 35 54 14 0 34
13 48 30 20 23 34 30 61 30 60 0 98 76 62 125 -9 12 -12 32 -9 52 9 51 -46 97
-102 85z m-25 -157 c0 -9 -7 -18 -16 -22 -18 -7 -39 11 -30 26 11 17 46 13 46
-4z"/>
</g>
</svg>
